<?xml version="1.0" standalone="no"?>
<!DOCTYPE svg PUBLIC "-//W3C//DTD SVG 20010904//EN"
 "http://www.w3.org/TR/2001/REC-SVG-20010904/DTD/svg10.dtd">
<svg version="1.0" xmlns="http://www.w3.org/2000/svg"
 width="500.000000pt" height="500.000000pt" viewBox="0 0 500.000000 500.000000"
 preserveAspectRatio="xMidYMid meet">
<metadata>
Created by potrace 1.11, written by Peter Selinger 2001-2013
</metadata>
<g transform="translate(0.000000,500.000000) scale(0.100000,-0.100000)"
fill="#000000" stroke="none">
<path d="M2335 4597 c-11 -19 -58 -69 -104 -113 l-84 -79 -81 2 c-114 4 -130
-5 -173 -93 -58 -119 -102 -156 -277 -234 -135 -60 -226 -140 -394 -347 -134
-166 -227 -232 -339 -241 -74 -6 -80 -21 -63 -152 11 -80 11 -130 2 -247 -7
-82 -16 -206 -22 -278 -8 -117 -35 -1687 -35 -2092 0 -202 -2 -199 133 -213
50 -5 153 -24 229 -41 176 -39 281 -47 370 -26 38 8 111 18 163 22 52 4 147
13 210 21 63 8 214 23 335 34 121 11 303 33 405 50 249 41 417 60 525 60 63 0
131 9 225 30 74 17 173 35 219 40 103 13 118 21 126 63 9 47 -2 1692 -14 2182
-6 226 -15 428 -20 450 -12 50 -39 72 -98 81 -50 7 -55 11 -333 257 -158 140
-176 161 -285 317 -89 130 -149 197 -214 241 -28 19 -51 38 -51 43 0 21 -105
168 -147 207 -44 40 -137 89 -171 89 -9 0 -26 -15 -37 -33z"/>
<path d="M3787 2923 c-14 -14 -5 -47 69 -245 l76 -203 -9 -240 c-5 -132 -7
-246 -5 -252 2 -7 20 -13 38 -13 27 0 36 5 43 23 5 12 12 114 15 227 4 120 13
229 22 263 8 32 51 135 95 229 87 182 90 200 35 206 -36 4 -50 -9 -66 -60 -17
-58 -111 -268 -119 -268 -4 0 -31 74 -59 164 -33 104 -58 166 -68 170 -21 8
-59 8 -67 -1z"/>
</g>
</svg>
