<svg id="Layer_4" data-name="Layer 4" xmlns="http://www.w3.org/2000/svg" viewBox="0 0 355.74 419.22"><defs><style>.cls-1{fill:none;}.cls-2{fill:#ae6378;}.cls-3{fill:#fbf3c4;}.cls-4{fill:#dcd5b5;}.cls-5{fill:#79616f;}.cls-6{fill:#cfc8ab;}.cls-10,.cls-7{font-size:123.01px;fill:#1e171c;stroke:#1e171c;stroke-miterlimit:10;font-family:DKLemonYellowSun, DK Lemon Yellow Sun;}.cls-7{letter-spacing:0.05em;}.cls-8{letter-spacing:0.03em;}.cls-9{letter-spacing:0.03em;}.cls-10{letter-spacing:0.05em;}</style></defs><path class="cls-1" d="M178.08,277.31l1.56-.45-1.56.45Z" transform="translate(-102.04 -32.78)"/><path class="cls-2" d="M394.42,275c.3-6.83-.94-12.45-8.49-15.25-2.92-1.08-5.31-4.19-7.4-6.81A106.49,106.49,0,0,0,342,223.2c-8.18-4-13.4-9.51-12.65-19.87.87-12.22-1.92-13.55-14.14-14.13-12.43-.58-21.23,5.83-30.11,12.68-5.11,3.94-9.89,3.92-15.69,1.25-11-5.07-12.62-4.56-19.23,5.71-6.12,9.5-15.39,14.85-24.7,20.2a39.72,39.72,0,0,0-14.39,14.05,39.41,39.41,0,0,1-7.45,9.17c-6.86,5.94-14,11.45-17.6,20.29a7.22,7.22,0,0,1-1.52,2.34,6.14,6.14,0,0,1-4.41,1.85l-.43.12-1.56.45c.07,5.95.07,11.89.21,17.83,1.22,51.25,2.41,102.5,1.7,153.77,15.45-.1,30.86-2.3,46-4.22,13.35-1.69,26.79-1.8,40.11-3.67,26.13-3.67,52-9.63,78.67-9.26,5.75.08,11.52-2,17.28-3.14s11.45-2.8,17.25-3.33c16.39-1.51,16.52-1.33,16.38-17.61C395.31,363.46,396.82,319.21,394.42,275Z" transform="translate(-102.04 -32.78)"/><path class="cls-3" d="M290.63,66.11c-4.45,16.52-19.34,16-31.61,19.46-7.15,2-14.12,3.86-19.48,9.41-1.8,1.86-3.56,3.68-3.39,6.55.48,8.11-4.05,12.79-11,15.21-8.21,2.84-10.63,11.89-18.38,15.81-3.81,1.92-7.67,3.55-11.56,5.07s-7.82,2.91-11.75,4.37l-.24,3.31c.66,6.45,1.14,12.92,2,19.35,2.27,17-4.9,32.8-5.88,49.45a198.45,198.45,0,0,0,.49,26.05c.86,12.14.25,24.39.27,36.59a6.14,6.14,0,0,0,4.41-1.85,7.22,7.22,0,0,0,1.52-2.34c3.59-8.84,10.74-14.35,17.6-20.29a39.41,39.41,0,0,0,7.45-9.17A39.72,39.72,0,0,1,225.44,229c9.31-5.35,18.58-10.7,24.7-20.2,6.61-10.27,8.24-10.78,19.23-5.71,5.8,2.67,10.58,2.69,15.69-1.25,8.88-6.85,17.68-13.26,30.11-12.68,12.22.58,15,1.91,14.14,14.13-.75,10.36,4.47,15.86,12.65,19.87a106.49,106.49,0,0,1,36.57,29.74c2.09,2.62,4.48,5.73,7.4,6.81,7.55,2.8,8.79,8.42,8.49,15.25,2.13-2.45,1.25-5.42,1.27-8.18,0-9.89-.9-19.76-1.35-29.62-1.1-24.61-.12-49.29-1.75-73.95-.6-9.08-1.8-14.8-12.18-14.89-2.2,0-4.65-2-6.54-3.64-9-7.71-17.95-15.47-26.68-23.48-5.58-5.12-11.71-9.47-16.56-15.64-11.52-14.66-19.7-32.37-36.8-42.12C292.73,64.34,290.92,65,290.63,66.11Z" transform="translate(-102.04 -32.78)"/><path class="cls-4" d="M163,271.9c4.87,2.26,9.51,5.06,15.05,5.41l1.56-.45.43-.12c0-12.2.59-24.45-.27-36.59a198.45,198.45,0,0,1-.49-26.05c1-16.65,8.15-32.48,5.88-49.45-.86-6.43-1.34-12.9-2-19.35h-26.5c9.51-4.13,18.18-3.19,26.74-3.31,3.93-1.46,7.85-2.86,11.75-4.37s7.75-3.15,11.56-5.07c7.75-3.92,10.17-13,18.38-15.81,7-2.42,11.51-7.1,11-15.21-.17-2.87,1.59-4.69,3.39-6.55,5.36-5.55,12.33-7.42,19.48-9.41,12.27-3.42,27.16-2.94,31.61-19.46.29-1.09,2.1-1.77,3.2-2.63,0-2.81-2.09-4.56-3.38-6.71C284.54,47,277.94,38,266.36,34.31c-2.09-.66-4.91-2.93-5.91-.24-2.77,7.46-10.2,10.34-14.33,15.89-4.94,6.64-10,6.64-16.54,5.34s-11.31.72-13.89,7.63c-3.94,10.55-12,18.81-21.87,22.06-18.2,6-30.24,18.42-41.71,32.52-10.06,12.35-19.28,26.05-36.59,29.41,5.13,3.62,10.87,2.26,16.14,1.17,7.12-1.47,14.39,0,21.36-1.77-14.63,3.23-29.27,8.07-44.19.89-3.4,4-2.12,8.77-1.37,12.89a63.31,63.31,0,0,1,1.2,14.29c-.92,20.73-4.16,41.32-3.92,62.15.15,13.55-.33,27.11-.53,40.67,5-.1,9.41-2.16,13.48-4.7C132.74,263.13,147.85,264.87,163,271.9Z" transform="translate(-102.04 -32.78)"/><path class="cls-5" d="M178.29,295.14c-.14-5.94-.14-11.88-.21-17.83h0c-5.54-.35-10.18-3.15-15.05-5.41-15.18-7-30.29-8.77-45.34.61-4.07,2.54-8.48,4.6-13.48,4.7a74.85,74.85,0,0,0-.74,9.3c1.82,49.28-2,98.51-1.36,147.78.07,6.19,2.28,9,8.09,9.25,12.74.48,24.92,3.82,37.29,6.53,10.6,2.32,21.82,3.22,32.5-1.16C180.7,397.64,179.51,346.39,178.29,295.14Z" transform="translate(-102.04 -32.78)"/><path class="cls-6" d="M153,146.32c-7,1.73-14.24.3-21.36,1.77-5.27,1.09-11,2.45-16.14-1.17l-6.69.29C123.75,154.39,138.39,149.55,153,146.32Z" transform="translate(-102.04 -32.78)"/><path class="cls-6" d="M156.69,145.3h26.5l.24-3.31C174.87,142.11,166.2,141.17,156.69,145.3Z" transform="translate(-102.04 -32.78)"/><text class="cls-7" transform="translate(88.68 262.57)">S<tspan class="cls-8" x="50.19" y="0">o</tspan><tspan x="108.13" y="0">a</tspan><tspan class="cls-9" x="163.36" y="0">p</tspan><tspan x="206.9" y="0">y</tspan></text><text class="cls-10" transform="translate(86.94 371.56)">Shop</text></svg>